# xmcd CD database file
#
# Track frame offsets:
#	150
#	17346
#	42688
#	68849
#	105052
#
# Disc length: 1894 seconds
#
# Revision: 0
# Processed by: cddbd v1.4PL0 Copyright (c) Steve Scherf et al.
# Submitted via: CDex 1.50
#
DISCID=32076405
DTITLE=Steve Reid - Nova
DYEAR=1976
DGENRE=Jazz
TTITLE0=Nova
TTITLE1=Lions of Juda
TTITLE2=Free Spirits-Unknown
TTITLE3=Long Time Black
TTITLE4=Sixth House
EXTD=YEAR: 1976
EXTT0=
EXTT1=
EXTT2=
EXTT3=
EXTT4=
PLAYORDER=
